<?xml version="1.0" encoding="UTF-8"?><svg id="Layer_11_copy" xmlns="http://www.w3.org/2000/svg" viewBox="0 0 1000 1000"><g id="FLS_B_x2F_W_copy"><path d="M223.25,799.35v-91.41c-8.63-10.54-16.69-22.09-23.96-34.59-40.74-70.13-43.85-147.48-11.89-190.91l-84.22-62.53v310.11l120.08,69.32Z" style="fill:none;"/><path d="M897.22,730.03v-152.07l-66.43,38.47c-5.53,18.64-13.62,37.49-24.29,55.87-20.39,35.11-47.03,62.91-75.26,81.15l19.22,61.31,146.76-84.73Z" style="fill:none;"/><polygon points="897.22 429.51 897.22 419.67 839.7 462.14 897.22 429.51" style="fill:none;"/><path d="M483.85,1000v-50.23l-103.2-59.58v-94.81l-164.15,116.7c76.43,52.71,168.25,84.73,267.35,87.93Z" style="fill:#444;"/><path d="M187.4,482.44c-31.96,43.43-28.85,120.78,11.89,190.91,7.28,12.5,15.34,24.05,23.96,34.59v91.41l-120.08-69.32v-310.11l-61.07-45.34,61.07-.47v-83.96l-43.98-25.39C21.63,334.98,0,415,0,500.19c0,170.76,85.6,321.48,216.22,411.7l104.56-330.42-133.38-99.03Z" style="fill:#444;"/><path d="M941.29,264.92l-44.07,25.46v84.79l59.45.61-59.45,43.89v9.84l-57.52,32.63-162.25,119.8,53.78,171.52c28.23-18.24,54.86-46.05,75.26-81.15,10.67-18.38,18.76-37.23,24.29-55.87l66.43-38.47v152.07l-146.76,84.73,30.84,98.35-89.89-64.26-174.17,100.56v50.56c268.38-8.99,483.18-229.25,483.18-499.79,0-85.14-21.59-165.11-59.12-235.27Z" style="fill:#444;"/><path d="M666.9,262.77c0-54.97-56-101.17-132.03-114.7l68.54,205.55c38.81-21.77,63.49-54.39,63.49-90.85Z" style="fill:#444;"/><path d="M426.47,151.56l-58.15-33.03,131.91-76.14,379.88,219.3c16.44-9.49,31.41-18.14,44.46-25.68C836.27,94.43,679.44,0,500.23,0S164.28,94.37,75.94,235.89c13.41,7.73,28.34,16.33,44.57,25.71l118.48-68.4,75.94,43.98c-2.71,8.25-4.17,16.81-4.17,25.6,0,41.85,32.48,78.63,81.56,99.77l73.14-217.46c-13.53,1.18-26.59,3.38-39,6.48Z" style="fill:#444;"/><path d="M216.07,912.37l.42-.3c-.09-.06-.18-.12-.27-.19l-.15.49Z" style="fill:#ff0;"/><path d="M534.88,148.07l-35.06-105.13-34.35,102.14c7.65-.67,15.45-1.02,23.37-1.02,15.92,0,31.35,1.4,46.04,4.01Z" style="fill:#ff0;"/><path d="M731.24,753.46c-40.16,25.95-83.55,32.54-116.86,13.21-56.68-32.94-62.56-128.57-13.2-213.63,49.39-85.02,135.42-127.28,192.12-94.35,8.11,4.72,15.13,10.75,21.16,17.78l25.25-14.32,57.52-42.47v-44.51l-287.61-2.97-6.19-18.58c-30.97,17.37-70.94,27.84-114.58,27.84-35.58,0-68.71-6.95-96.51-18.93l-3.15,9.37-286,2.2v45.81l84.22,62.53c6.8-9.24,15.17-16.95,25.12-22.72,56.69-32.92,142.7,9.35,192.09,94.37,49.4,85.06,43.45,180.67-13.21,213.61-3.49,2.04-7.06,3.73-10.75,5.22v22.45l118.3-84.1,192.46,137.58,59.05-34.09-19.22-61.31Z" style="fill:#ff0;"/><polygon points="103.18 419.92 103.18 374.11 42.11 374.58 103.18 419.92" style="fill:#ff0;"/><path d="M391.39,767.7c56.67-32.94,62.62-128.56,13.21-213.61-49.39-85.02-135.4-127.28-192.09-94.37-9.95,5.77-18.32,13.48-25.12,22.72l133.38,99.03-104.56,330.42c.09.06.18.12.27.19l164.15-116.7v-22.45c3.68-1.48,7.26-3.17,10.75-5.22Z" style="fill:#ff0;"/><polygon points="750.46 814.76 691.41 848.85 781.3 913.11 750.46 814.76" style="fill:#ff0;"/><path d="M793.3,458.69c-56.7-32.93-142.72,9.33-192.12,94.35-49.37,85.06-43.48,180.69,13.2,213.63,33.31,19.33,76.7,12.73,116.86-13.21l-53.78-171.52,162.25-119.8-25.25,14.32c-6.03-7.03-13.04-13.06-21.16-17.78Z" style="fill:#ff0;"/><polygon points="956.67 375.78 897.22 375.16 897.22 419.67 956.67 375.78" style="fill:#ff0;"/><path d="M603.42,353.62l-68.54-205.55c-14.69-2.61-30.12-4.01-46.04-4.01-7.92,0-15.72.35-23.37,1.02l-73.14,217.46c27.81,11.98,60.94,18.93,96.51,18.93,43.64,0,83.61-10.47,114.58-27.84Z" style="fill:#ff0;"/></g><g id="Star_Frame_copy_2"><path d="M499.78,74.43l100.34,300.93,2.26,6.76,7.13.07,317.2,3.27-255.19,188.42-5.73,4.23,2.13,6.8,94.91,302.69-258.06-184.47-5.8-4.15-5.81,4.13-258.54,183.8,95.7-302.44,2.15-6.8-5.72-4.25-254.7-189.09,317.21-2.44,7.13-.05,2.27-6.76,101.13-300.66M499.82,42.94l-110.65,328.96-347.07,2.67,278.67,206.89-104.71,330.9,282.88-201.1,282.35,201.84-103.84-331.18,279.21-206.16-347.06-3.58L499.82,42.94h0Z" style="fill:#fff;"/></g></svg>